<?xml version="1.0" encoding="UTF-8" standalone="no"?>
<!DOCTYPE svg PUBLIC "-//W3C//DTD SVG 1.1//EN"
 "http://www.w3.org/Graphics/SVG/1.1/DTD/svg11.dtd">
<!-- Generated by graphviz version 2.43.0 (0)
 -->
<!-- Title: %3 Pages: 1 -->
<svg width="193pt" height="576pt"
 viewBox="0.00 0.00 193.20 576.00" xmlns="http://www.w3.org/2000/svg" xmlns:xlink="http://www.w3.org/1999/xlink">
<g id="graph0" class="graph" transform="scale(0.9 0.9) rotate(0) translate(4 634)">
<title>%3</title>
<polygon fill="white" stroke="transparent" points="-4,4 -4,-634 210,-634 210,4 -4,4"/>
<!-- usage -->
<g id="node1" class="node">
<title>usage</title>
<polygon fill="none" stroke="black" points="179.5,-630 26.5,-630 26.5,-592 179.5,-592 179.5,-630"/>
<text text-anchor="middle" x="103" y="-614.8" font-family="Times,serif" font-size="14.00">usage()</text>
<text text-anchor="middle" x="103" y="-599.8" font-family="Times,serif" font-size="14.00">Displays help and syntax</text>
</g>
<!-- build -->
<g id="node2" class="node">
<title>build</title>
<polygon fill="none" stroke="black" points="206,-556 0,-556 0,-518 206,-518 206,-556"/>
<text text-anchor="middle" x="103" y="-540.8" font-family="Times,serif" font-size="14.00">build_mysql_command()</text>
<text text-anchor="middle" x="103" y="-525.8" font-family="Times,serif" font-size="14.00">Constructs MySQL CLI command</text>
</g>
<!-- usage&#45;&gt;build -->
<g id="edge1" class="edge">
<title>usage&#45;&gt;build</title>
<path fill="none" stroke="black" d="M103,-591.83C103,-584.13 103,-574.97 103,-566.42"/>
<polygon fill="black" stroke="black" points="106.5,-566.41 103,-556.41 99.5,-566.41 106.5,-566.41"/>
</g>
<!-- detect -->
<g id="node3" class="node">
<title>detect</title>
<polygon fill="none" stroke="black" points="177.5,-482 28.5,-482 28.5,-444 177.5,-444 177.5,-482"/>
<text text-anchor="middle" x="103" y="-466.8" font-family="Times,serif" font-size="14.00">detect_mysql_version()</text>
<text text-anchor="middle" x="103" y="-451.8" font-family="Times,serif" font-size="14.00">Detects MySQL version</text>
</g>
<!-- build&#45;&gt;detect -->
<g id="edge2" class="edge">
<title>build&#45;&gt;detect</title>
<path fill="none" stroke="black" d="M103,-517.83C103,-510.13 103,-500.97 103,-492.42"/>
<polygon fill="black" stroke="black" points="106.5,-492.41 103,-482.41 99.5,-492.41 106.5,-492.41"/>
</g>
<!-- is_system -->
<g id="node4" class="node">
<title>is_system</title>
<polygon fill="none" stroke="black" points="175,-408 31,-408 31,-370 175,-370 175,-408"/>
<text text-anchor="middle" x="103" y="-392.8" font-family="Times,serif" font-size="14.00">is_system_user()</text>
<text text-anchor="middle" x="103" y="-377.8" font-family="Times,serif" font-size="14.00">Filters system accounts</text>
</g>
<!-- detect&#45;&gt;is_system -->
<g id="edge3" class="edge">
<title>detect&#45;&gt;is_system</title>
<path fill="none" stroke="black" d="M103,-443.83C103,-436.13 103,-426.97 103,-418.42"/>
<polygon fill="black" stroke="black" points="106.5,-418.41 103,-408.41 99.5,-418.41 106.5,-418.41"/>
</g>
<!-- is_sha1 -->
<g id="node5" class="node">
<title>is_sha1</title>
<polygon fill="none" stroke="black" points="169,-334 37,-334 37,-296 169,-296 169,-334"/>
<text text-anchor="middle" x="103" y="-318.8" font-family="Times,serif" font-size="14.00">is_valid_sha1_hash()</text>
<text text-anchor="middle" x="103" y="-303.8" font-family="Times,serif" font-size="14.00">Validates SHA1 hash</text>
</g>
<!-- is_system&#45;&gt;is_sha1 -->
<g id="edge4" class="edge">
<title>is_system&#45;&gt;is_sha1</title>
<path fill="none" stroke="black" d="M103,-369.83C103,-362.13 103,-352.97 103,-344.42"/>
<polygon fill="black" stroke="black" points="106.5,-344.41 103,-334.41 99.5,-344.41 106.5,-344.41"/>
</g>
<!-- user_exists -->
<g id="node6" class="node">
<title>user_exists</title>
<polygon fill="none" stroke="black" points="203,-260 3,-260 3,-222 203,-222 203,-260"/>
<text text-anchor="middle" x="103" y="-244.8" font-family="Times,serif" font-size="14.00">user_exists()</text>
<text text-anchor="middle" x="103" y="-229.8" font-family="Times,serif" font-size="14.00">Checks whether an account exists</text>
</g>
<!-- is_sha1&#45;&gt;user_exists -->
<g id="edge5" class="edge">
<title>is_sha1&#45;&gt;user_exists</title>
<path fill="none" stroke="black" d="M103,-295.83C103,-288.13 103,-278.97 103,-270.42"/>
<polygon fill="black" stroke="black" points="106.5,-270.41 103,-260.41 99.5,-270.41 106.5,-270.41"/>
</g>
<!-- filter -->
<g id="node7" class="node">
<title>filter</title>
<polygon fill="none" stroke="black" points="202,-186 4,-186 4,-148 202,-148 202,-186"/>
<text text-anchor="middle" x="103" y="-170.8" font-family="Times,serif" font-size="14.00">filter_grants_for_target_version()</text>
<text text-anchor="middle" x="103" y="-155.8" font-family="Times,serif" font-size="14.00">Filters privileges</text>
</g>
<!-- user_exists&#45;&gt;filter -->
<g id="edge6" class="edge">
<title>user_exists&#45;&gt;filter</title>
<path fill="none" stroke="black" d="M103,-221.83C103,-214.13 103,-204.97 103,-196.42"/>
<polygon fill="black" stroke="black" points="106.5,-196.41 103,-186.41 99.5,-196.41 106.5,-196.41"/>
</g>
<!-- drop -->
<g id="node8" class="node">
<title>drop</title>
<polygon fill="none" stroke="black" points="183.5,-112 22.5,-112 22.5,-74 183.5,-74 183.5,-112"/>
<text text-anchor="middle" x="103" y="-96.8" font-family="Times,serif" font-size="14.00">generate_safe_drop_user()</text>
<text text-anchor="middle" x="103" y="-81.8" font-family="Times,serif" font-size="14.00">Generates DROP USER</text>
</g>
<!-- filter&#45;&gt;drop -->
<g id="edge7" class="edge">
<title>filter&#45;&gt;drop</title>
<path fill="none" stroke="black" d="M103,-147.83C103,-140.13 103,-130.97 103,-122.42"/>
<polygon fill="black" stroke="black" points="106.5,-122.41 103,-112.41 99.5,-122.41 106.5,-122.41"/>
</g>
<!-- password -->
<g id="node9" class="node">
<title>password</title>
<polygon fill="none" stroke="black" points="188,-38 18,-38 18,0 188,0 188,-38"/>
<text text-anchor="middle" x="103" y="-22.8" font-family="Times,serif" font-size="14.00">generate_strong_password()</text>
<text text-anchor="middle" x="103" y="-7.8" font-family="Times,serif" font-size="14.00">Creates strong passwords</text>
</g>
<!-- drop&#45;&gt;password -->
<g id="edge8" class="edge">
<title>drop&#45;&gt;password</title>
<path fill="none" stroke="black" d="M103,-73.83C103,-66.13 103,-56.97 103,-48.42"/>
<polygon fill="black" stroke="black" points="106.5,-48.41 103,-38.41 99.5,-48.41 106.5,-48.41"/>
</g>
</g>
</svg>
