<?xml version="1.0" encoding="UTF-8" standalone="no"?>
<!DOCTYPE svg PUBLIC "-//W3C//DTD SVG 1.1//EN"
 "http://www.w3.org/Graphics/SVG/1.1/DTD/svg11.dtd">
<!-- Generated by graphviz version 2.43.0 (0)
 -->
<!-- Title: %3 Pages: 1 -->
<svg width="246pt" height="557pt"
 viewBox="0.00 0.00 246.00 557.00" xmlns="http://www.w3.org/2000/svg" xmlns:xlink="http://www.w3.org/1999/xlink">
<g id="graph0" class="graph" transform="scale(1 1) rotate(0) translate(4 553)">
<title>%3</title>
<polygon fill="white" stroke="transparent" points="-4,4 -4,-553 242,-553 242,4 -4,4"/>
<!-- v56 -->
<g id="node1" class="node">
<title>v56</title>
<polygon fill="lightgrey" stroke="black" points="161.5,-549 76.5,-549 76.5,-495 161.5,-495 161.5,-549"/>
<text text-anchor="middle" x="119" y="-533.8" font-family="Times,serif" font-size="14.00">MYSQL 5.6</text>
<text text-anchor="middle" x="119" y="-502.8" font-family="Times,serif" font-size="14.00">SUPER</text>
</g>
<!-- v57 -->
<g id="node2" class="node">
<title>v57</title>
<polygon fill="lightblue" stroke="black" points="223.5,-459 14.5,-459 14.5,-375 223.5,-375 223.5,-459"/>
<text text-anchor="middle" x="119" y="-443.8" font-family="Times,serif" font-size="14.00">MYSQL 5.7</text>
<text text-anchor="middle" x="119" y="-412.8" font-family="Times,serif" font-size="14.00">SUPER</text>
<text text-anchor="middle" x="119" y="-397.8" font-family="Times,serif" font-size="14.00">SHOW_ROUTINE</text>
<text text-anchor="middle" x="119" y="-382.8" font-family="Times,serif" font-size="14.00">GROUP_REPLICATION_ADMIN</text>
</g>
<!-- v56&#45;&gt;v57 -->
<g id="edge1" class="edge">
<title>v56&#45;&gt;v57</title>
<path fill="none" stroke="black" d="M119,-494.74C119,-486.95 119,-478.12 119,-469.31"/>
<polygon fill="black" stroke="black" points="122.5,-469.03 119,-459.03 115.5,-469.03 122.5,-469.03"/>
</g>
<!-- v80 -->
<g id="node3" class="node">
<title>v80</title>
<polygon fill="lightblue" stroke="black" points="238,-339 0,-339 0,0 238,0 238,-339"/>
<text text-anchor="middle" x="119" y="-323.8" font-family="Times,serif" font-size="14.00">MYSQL 8.0+</text>
<text text-anchor="middle" x="119" y="-292.8" font-family="Times,serif" font-size="14.00">CONNECTION_ADMIN</text>
<text text-anchor="middle" x="119" y="-277.8" font-family="Times,serif" font-size="14.00">SYSTEM_VARIABLES_ADMIN</text>
<text text-anchor="middle" x="119" y="-262.8" font-family="Times,serif" font-size="14.00">REPLICATION_SLAVE_ADMIN</text>
<text text-anchor="middle" x="119" y="-247.8" font-family="Times,serif" font-size="14.00">REPLICATION_APPLIER</text>
<text text-anchor="middle" x="119" y="-232.8" font-family="Times,serif" font-size="14.00">REPLICATION_REPLICA_ADMIN</text>
<text text-anchor="middle" x="119" y="-217.8" font-family="Times,serif" font-size="14.00">AUDIT_ADMIN</text>
<text text-anchor="middle" x="119" y="-202.8" font-family="Times,serif" font-size="14.00">BACKUP_ADMIN</text>
<text text-anchor="middle" x="119" y="-187.8" font-family="Times,serif" font-size="14.00">PERSIST_RO_VARIABLES_ADMIN</text>
<text text-anchor="middle" x="119" y="-172.8" font-family="Times,serif" font-size="14.00">RESOURCE_GROUP_ADMIN</text>
<text text-anchor="middle" x="119" y="-157.8" font-family="Times,serif" font-size="14.00">RESOURCE_GROUP_USER</text>
<text text-anchor="middle" x="119" y="-142.8" font-family="Times,serif" font-size="14.00">CREATE ROLE</text>
<text text-anchor="middle" x="119" y="-127.8" font-family="Times,serif" font-size="14.00">DROP ROLE</text>
<text text-anchor="middle" x="119" y="-112.8" font-family="Times,serif" font-size="14.00">APPLICATION_PASSWORD_ADMIN</text>
<text text-anchor="middle" x="119" y="-97.8" font-family="Times,serif" font-size="14.00">PASSWORDLESS_USER_ADMIN</text>
<text text-anchor="middle" x="119" y="-82.8" font-family="Times,serif" font-size="14.00">BINLOG_ADMIN</text>
<text text-anchor="middle" x="119" y="-67.8" font-family="Times,serif" font-size="14.00">BINLOG_ENCRYPTION_ADMIN</text>
<text text-anchor="middle" x="119" y="-52.8" font-family="Times,serif" font-size="14.00">SESSION_VARIABLES_ADMIN</text>
<text text-anchor="middle" x="119" y="-37.8" font-family="Times,serif" font-size="14.00">INNODB_REDO_LOG_ARCHIVE</text>
<text text-anchor="middle" x="119" y="-22.8" font-family="Times,serif" font-size="14.00">FEDERATED_ADMIN</text>
<text text-anchor="middle" x="119" y="-7.8" font-family="Times,serif" font-size="14.00">CLONE_ADMIN</text>
</g>
<!-- v57&#45;&gt;v80 -->
<g id="edge2" class="edge">
<title>v57&#45;&gt;v80</title>
<path fill="none" stroke="black" d="M119,-374.91C119,-367.09 119,-358.46 119,-349.3"/>
<polygon fill="black" stroke="black" points="122.5,-349.17 119,-339.17 115.5,-349.17 122.5,-349.17"/>
</g>
</g>
</svg>
